<svg width="670" height="255" viewBox="0 0 670 255" fill="none" xmlns="http://www.w3.org/2000/svg">
<path d="M17.5195 225.119C16.8457 225.119 16.3965 225.044 16.1719 224.895L15.7227 225.007C15.5729 225.007 15.4232 224.932 15.2734 224.782C15.1986 224.632 15.1237 224.558 15.0488 224.558C12.2786 222.836 10.8936 218.98 10.8936 212.99C10.8936 208.124 12.4284 198.653 15.498 184.577C23.7337 145.944 34.7021 106.638 48.4033 66.6572C50.3499 60.5179 51.4355 56.7744 51.6602 55.4268C52.1094 52.8063 52.334 51.0094 52.334 50.0361C52.334 49.512 52.2591 49.2126 52.1094 49.1377C51.9596 49.0628 51.8099 48.9505 51.6602 48.8008C49.4889 49.6243 48.2536 50.1484 47.9541 50.373C47.6546 50.5977 47.2054 50.8223 46.6064 51.0469C40.1676 54.6406 35.1139 60.0312 31.4453 67.2188C31.1458 67.4434 30.6217 68.6787 29.873 70.9248C28.8249 74.2191 27.8516 75.8662 26.9531 75.8662C26.429 75.8662 26.0173 75.3421 25.7178 74.2939C25.6429 73.9945 25.6055 73.6576 25.6055 73.2832C25.6055 70.9622 26.8408 67.8177 29.3115 63.8496C33.4294 56.4375 40.2051 50.4105 49.6387 45.7686C50.6868 45.3942 51.5479 45.1696 52.2217 45.0947C52.3714 45.0947 52.4837 45.1322 52.5586 45.207L54.3555 45.6562C55.4785 46.3301 56.04 47.5654 56.04 49.3623L55.9277 51.6084C55.9277 54.6781 53.4196 63.363 48.4033 77.6631C39.8682 103.493 31.2581 133.591 22.5732 167.956C17.3324 191.765 14.7119 206.589 14.7119 212.429C14.7119 218.418 16.0596 221.413 18.7549 221.413C25.4183 219.466 39.9805 200.674 62.4414 165.036C71.9499 149.987 84.4531 129.585 99.9512 103.83C109.535 87.1341 121.589 67.1064 136.113 43.7471C137.311 41.9502 138.285 40.9769 139.033 40.8271C139.707 40.8271 140.044 41.1266 140.044 41.7256C140.044 43.4476 133.83 54.3786 121.401 74.5186C94.2236 120.039 75.3564 151.11 64.7998 167.731C40.4671 205.99 24.707 225.119 17.5195 225.119ZM100.063 175.48C96.6195 175.48 94.8226 173.833 94.6729 170.539C94.6729 169.117 94.8226 167.619 95.1221 166.047C96.6943 158.56 98.9404 151.447 101.86 144.709C102.085 144.41 102.347 144.26 102.646 144.26C103.021 144.26 103.395 144.335 103.77 144.484C104.219 144.634 104.556 144.821 104.78 145.046C105.08 145.196 105.229 145.383 105.229 145.607C102.609 151.522 100.588 157.474 99.165 163.464C98.4912 165.785 98.1543 167.806 98.1543 169.528C98.1543 171.25 98.903 172.111 100.4 172.111C101.748 172.111 103.171 171.7 104.668 170.876C115.749 164.512 125.781 155.939 134.766 145.158C134.915 145.008 135.065 144.934 135.215 144.934C135.889 144.934 136.413 145.308 136.787 146.057L136.675 146.506C130.535 154.143 123.049 161.33 114.214 168.068C113.69 168.518 112.642 169.229 111.069 170.202C106.353 173.571 102.684 175.331 100.063 175.48ZM107.139 140.891L106.577 140.778C104.631 140.329 103.657 140.067 103.657 139.992L105.454 135.837C105.828 135.987 106.24 136.062 106.689 136.062C108.112 136.436 108.823 136.66 108.823 136.735L107.139 140.891ZM159.697 150.661L160.146 150.1C164.264 144.559 166.323 140.367 166.323 137.521C166.323 135.35 165.5 134.265 163.853 134.265C161.831 134.265 159.997 135.799 158.35 138.869C157.751 140.292 157.451 141.939 157.451 143.811C157.676 146.506 158.424 148.789 159.697 150.661ZM122.075 191.989H121.738C121.589 191.914 121.439 191.877 121.289 191.877C121.064 191.877 120.915 191.802 120.84 191.652C120.69 191.428 120.391 191.128 119.941 190.754C119.567 190.005 119.38 189.069 119.38 187.946C119.38 187.048 119.492 186.075 119.717 185.026C124.583 166.833 131.322 149.763 139.932 133.815C140.456 132.992 140.98 132.58 141.504 132.58C142.627 132.73 143.188 133.254 143.188 134.152L142.852 135.612C134.915 150.212 128.589 165.635 123.872 181.882L123.535 183.342L123.423 183.454C123.049 185.401 122.861 186.786 122.861 187.609V188.171C124.958 186.748 128.551 183.679 133.643 178.962C143.451 169.753 151.574 161.068 158.013 152.907C155.692 150.287 154.531 147.367 154.531 144.147C154.531 143.174 154.644 142.201 154.868 141.228C155.841 136.586 158.2 133.479 161.943 131.906C162.767 131.532 163.778 131.345 164.976 131.345C167.896 131.944 169.355 133.778 169.355 136.848C169.355 140.217 166.81 145.495 161.719 152.683C164.04 154.479 167.259 155.528 171.377 155.827C178.864 155.528 186.089 152.084 193.052 145.495C193.651 144.971 194.175 144.709 194.624 144.709C195.073 144.709 195.298 144.934 195.298 145.383C195.298 146.132 194.924 146.88 194.175 147.629C186.239 154.891 178.228 158.522 170.142 158.522C166.323 158.522 162.954 157.325 160.034 154.929C154.119 162.565 145.809 171.438 135.103 181.545C129.188 187.085 124.845 190.567 122.075 191.989ZM191.929 175.48C188.485 175.48 186.688 173.833 186.538 170.539C186.538 169.117 186.688 167.619 186.987 166.047C188.56 158.56 190.806 151.447 193.726 144.709C193.95 144.41 194.212 144.26 194.512 144.26C194.886 144.26 195.26 144.335 195.635 144.484C196.084 144.634 196.421 144.821 196.646 145.046C196.945 145.196 197.095 145.383 197.095 145.607C194.474 151.522 192.453 157.474 191.03 163.464C190.356 165.785 190.02 167.806 190.02 169.528C190.02 171.25 190.768 172.111 192.266 172.111C193.613 172.111 195.036 171.7 196.533 170.876C207.614 164.512 217.646 155.939 226.631 145.158C226.781 145.008 226.93 144.934 227.08 144.934C227.754 144.934 228.278 145.308 228.652 146.057L228.54 146.506C222.401 154.143 214.914 161.33 206.079 168.068C205.555 168.518 204.507 169.229 202.935 170.202C198.218 173.571 194.549 175.331 191.929 175.48ZM199.004 140.891L198.442 140.778C196.496 140.329 195.522 140.067 195.522 139.992L197.319 135.837C197.694 135.987 198.105 136.062 198.555 136.062C199.977 136.436 200.688 136.66 200.688 136.735L199.004 140.891ZM220.117 170.988C220.941 170.988 221.39 170.951 221.465 170.876C221.615 170.726 221.877 170.614 222.251 170.539C224.198 169.94 229.775 163.951 238.984 152.57C240.781 149.875 244.188 145.607 249.204 139.768H248.867C248.118 139.618 247.407 139.543 246.733 139.543C243.739 139.543 240.781 140.104 237.861 141.228C237.712 141.377 237.262 141.564 236.514 141.789C235.465 142.313 234.455 142.912 233.481 143.586C233.032 143.96 232.583 144.297 232.134 144.597C231.759 144.896 231.535 145.083 231.46 145.158C231.46 145.158 231.385 145.158 231.235 145.158C231.16 145.158 230.936 145.383 230.562 145.832C229.139 146.955 228.353 147.666 228.203 147.966C228.128 148.19 227.791 148.527 227.192 148.977C226.444 149.725 226.069 150.212 226.069 150.437C225.695 150.736 225.321 151.11 224.946 151.56C220.828 156.351 218.208 161.068 217.085 165.71C216.935 166.459 216.86 167.132 216.86 167.731C216.86 169.828 217.946 170.913 220.117 170.988ZM247.969 177.165C246.322 177.165 245.273 176.903 244.824 176.379C244.375 176.379 243.327 175.293 241.68 173.122C240.706 171.774 240.22 169.416 240.22 166.047C240.22 161.929 241.455 157.137 243.926 151.672L236.064 161.33C230.449 168.218 225.695 172.561 221.802 174.357H221.577V174.47L220.229 174.694C217.01 174.694 214.801 173.534 213.604 171.213C213.529 170.764 213.416 170.464 213.267 170.314C213.117 169.715 213.042 169.079 213.042 168.405C213.042 167.357 213.192 166.271 213.491 165.148C215.737 158.485 219.069 152.87 223.486 148.303C223.711 148.003 225.133 146.506 227.754 143.811C234.193 138.495 240.781 135.837 247.52 135.837C248.418 135.837 249.242 135.912 249.99 136.062C250.365 136.211 250.776 136.286 251.226 136.286C251.675 136.286 252.349 136.473 253.247 136.848C253.472 136.848 253.696 136.923 253.921 137.072C254.22 137.147 254.37 137.185 254.37 137.185C254.445 137.185 254.482 137.222 254.482 137.297C255.081 137.447 255.381 137.821 255.381 138.42L255.269 138.981C250.252 145.495 246.584 152.832 244.263 160.993C243.813 163.015 243.589 164.812 243.589 166.384C243.589 170.277 244.899 172.748 247.52 173.796C247.819 173.946 248.193 174.021 248.643 174.021C252.161 174.021 257.065 170.277 263.354 162.79L278.179 144.934C278.853 144.934 279.189 145.196 279.189 145.72L279.077 146.281C270.767 157.736 263.28 166.534 256.616 172.673C253.097 175.443 250.627 176.903 249.204 177.053L247.969 177.165ZM265.376 180.31C265.076 180.31 264.702 180.272 264.253 180.197C263.729 180.048 263.317 179.898 263.018 179.748C262.718 179.523 262.568 179.374 262.568 179.299C268.258 165.298 274.285 151.41 280.649 137.634C280.799 137.484 281.024 137.409 281.323 137.409C283.045 137.634 283.906 138.008 283.906 138.532C279.339 148.49 274.959 158.448 270.767 168.405L285.815 149.763C289.11 145.42 292.591 143.249 296.26 143.249C299.03 143.249 300.415 144.971 300.415 148.415C300.415 149.463 300.303 150.699 300.078 152.121C299.105 157.137 298.618 160.806 298.618 163.127C298.618 163.501 298.656 164.362 298.73 165.71C298.88 166.983 299.779 167.619 301.426 167.619C304.57 167.619 311.121 161.929 321.079 150.549C321.229 150.324 322.951 148.49 326.245 145.046C326.47 144.821 326.694 144.709 326.919 144.709C327.593 144.709 328.005 145.196 328.154 146.169C328.154 146.468 325.384 149.613 319.844 155.603L318.047 157.624C310.785 165.86 305.02 170.202 300.752 170.651C297.083 170.651 295.249 168.068 295.249 162.902C295.249 161.405 295.399 159.908 295.698 158.41C296.597 154.367 297.046 151.335 297.046 149.313C297.046 147.442 296.372 146.506 295.024 146.506C293.078 146.805 291.506 147.704 290.308 149.201C289.709 149.8 284.917 155.715 275.933 166.945C269.644 174.807 266.462 178.924 266.387 179.299C266.237 179.598 266.125 179.86 266.05 180.085C265.975 180.235 265.75 180.31 265.376 180.31ZM321.528 158.41C328.491 152.346 334.032 146.169 338.149 139.88C338.374 139.506 338.674 139.056 339.048 138.532C339.422 138.008 339.647 137.409 339.722 136.735L339.497 136.511C336.951 136.511 334.294 138.27 331.523 141.789C327.331 147.03 323.999 152.57 321.528 158.41ZM322.09 183.791C321.566 183.791 321.117 183.754 320.742 183.679C316.774 182.181 314.79 179.561 314.79 175.817V174.694C314.79 172.748 315.202 169.903 316.025 166.159C318.421 156.576 322.876 147.779 329.39 139.768C332.909 135.35 336.278 133.142 339.497 133.142C341.968 133.142 343.203 134.152 343.203 136.174C343.203 137.072 342.716 138.308 341.743 139.88C341.069 140.928 340.695 141.564 340.62 141.789C336.877 147.255 332.534 152.421 327.593 157.287C323.55 161.18 320.854 163.539 319.507 164.362C318.309 168.405 317.71 171.55 317.71 173.796C317.71 178.288 319.32 180.684 322.539 180.983C325.609 180.983 330.513 178.363 337.251 173.122C345.037 167.058 352.375 160.394 359.263 153.132C362.782 149.538 365.028 147.105 366.001 145.832C366.375 145.383 366.787 145.158 367.236 145.158C367.76 145.158 368.022 145.42 368.022 145.944C368.022 146.693 365.552 149.725 360.61 155.041C341.593 174.208 328.753 183.791 322.09 183.791ZM404.409 235.339C401.639 235.339 399.655 235.227 398.457 235.002C393.141 233.729 390.483 229.873 390.483 223.435C390.483 221.713 390.708 219.766 391.157 217.595C391.606 215.498 392.505 212.84 393.853 209.621C395.125 206.402 399.468 197.155 406.88 181.882C427.394 140.928 447.347 103.044 466.738 68.2295L484.37 36.2227C485.194 34.875 485.942 34.1637 486.616 34.0889C487.44 34.0889 487.852 34.5381 487.852 35.4365C487.852 36.6344 479.279 52.694 462.134 83.6152C440.946 121.949 420.881 160.769 401.938 200.075C396.772 210.257 394.189 217.894 394.189 222.985C394.189 227.478 396.174 230.285 400.142 231.408C400.741 231.558 401.639 231.633 402.837 231.633C413.543 231.633 435.143 223.023 467.637 205.803C486.354 195.845 496.162 190.866 497.061 190.866C497.734 190.866 498.071 191.166 498.071 191.765C498.071 193.037 497.061 194.16 495.039 195.134L467.749 209.509C437.427 225.531 416.313 234.141 404.409 235.339ZM519.634 175.48C516.19 175.48 514.393 173.833 514.243 170.539C514.243 169.117 514.393 167.619 514.692 166.047C516.265 158.56 518.511 151.447 521.431 144.709C521.655 144.41 521.917 144.26 522.217 144.26C522.591 144.26 522.965 144.335 523.34 144.484C523.789 144.634 524.126 144.821 524.351 145.046C524.65 145.196 524.8 145.383 524.8 145.607C522.179 151.522 520.158 157.474 518.735 163.464C518.062 165.785 517.725 167.806 517.725 169.528C517.725 171.25 518.473 172.111 519.971 172.111C521.318 172.111 522.741 171.7 524.238 170.876C535.319 164.512 545.352 155.939 554.336 145.158C554.486 145.008 554.635 144.934 554.785 144.934C555.459 144.934 555.983 145.308 556.357 146.057L556.245 146.506C550.106 154.143 542.619 161.33 533.784 168.068C533.26 168.518 532.212 169.229 530.64 170.202C525.923 173.571 522.254 175.331 519.634 175.48ZM526.709 140.891L526.147 140.778C524.201 140.329 523.228 140.067 523.228 139.992L525.024 135.837C525.399 135.987 525.811 136.062 526.26 136.062C527.682 136.436 528.394 136.66 528.394 136.735L526.709 140.891ZM541.421 181.433C540.747 181.433 540.223 181.208 539.849 180.759C539.399 180.235 539.175 179.673 539.175 179.074C539.175 178.85 539.325 178.288 539.624 177.39C543.068 168.48 545.277 162.977 546.25 160.881C550.218 151.971 554.71 143.324 559.727 134.938C560.251 134.04 560.775 133.591 561.299 133.591C562.422 133.591 562.983 134.077 562.983 135.051C562.983 135.874 562.796 136.511 562.422 136.96C555.309 148.715 549.432 160.769 544.79 173.122C550.78 163.464 556.844 154.929 562.983 147.517C563.507 146.993 564.443 145.869 565.791 144.147C567.513 142.126 569.198 141.115 570.845 141.115C573.315 141.115 574.551 142.163 574.551 144.26L574.438 145.607C569.123 159.908 566.465 167.357 566.465 167.956C566.465 168.405 566.577 168.667 566.802 168.742C567.401 168.068 568.449 166.646 569.946 164.475C578.107 153.169 583.797 145.72 587.017 142.126C587.166 142.051 587.241 141.939 587.241 141.789C587.241 141.639 587.616 141.415 588.364 141.115C589.113 140.741 589.749 140.554 590.273 140.554C591.771 140.554 592.669 141.789 592.969 144.26C592.669 147.928 592.37 150.474 592.07 151.896C590.723 157.512 590.011 161.892 589.937 165.036L590.049 166.384C590.423 167.582 591.209 168.181 592.407 168.181C595.477 166.983 603.451 159.646 616.328 146.169C617.077 145.495 617.601 145.158 617.9 145.158C618.424 145.158 618.687 145.383 618.687 145.832C618.687 146.88 614.756 151.298 606.895 159.084C601.13 164.849 597.424 168.293 595.776 169.416C594.204 170.464 592.669 170.988 591.172 170.988C589.001 170.988 587.69 169.641 587.241 166.945C587.166 166.796 587.091 165.785 587.017 163.913C587.017 161.592 587.69 157.774 589.038 152.458L589.937 147.067L589.824 146.843C589.899 146.543 589.937 146.206 589.937 145.832C589.937 144.784 589.824 143.998 589.6 143.474C589.6 143.549 589.562 143.586 589.487 143.586C586.792 146.132 582.712 151.26 577.246 158.972C571.855 166.608 569.123 170.427 569.048 170.427C569.048 170.427 568.636 170.839 567.812 171.662L566.914 171.999C566.016 171.999 565.304 171.849 564.78 171.55C563.807 170.277 563.32 169.079 563.32 167.956C563.32 167.132 565.566 160.731 570.059 148.752C570.807 146.656 571.219 145.345 571.294 144.821C571.219 144.821 571.182 144.746 571.182 144.597L570.508 144.26C569.984 144.26 569.385 144.559 568.711 145.158C558.678 157.362 550.817 168.48 545.127 178.513C544.154 180.459 542.918 181.433 541.421 181.433ZM610.488 170.988C611.312 170.988 611.761 170.951 611.836 170.876C611.986 170.726 612.248 170.614 612.622 170.539C614.569 169.94 620.146 163.951 629.355 152.57C631.152 149.875 634.559 145.607 639.575 139.768H639.238C638.49 139.618 637.778 139.543 637.104 139.543C634.11 139.543 631.152 140.104 628.232 141.228C628.083 141.377 627.633 141.564 626.885 141.789C625.837 142.313 624.826 142.912 623.853 143.586C623.403 143.96 622.954 144.297 622.505 144.597C622.131 144.896 621.906 145.083 621.831 145.158C621.831 145.158 621.756 145.158 621.606 145.158C621.532 145.158 621.307 145.383 620.933 145.832C619.51 146.955 618.724 147.666 618.574 147.966C618.499 148.19 618.162 148.527 617.563 148.977C616.815 149.725 616.44 150.212 616.44 150.437C616.066 150.736 615.692 151.11 615.317 151.56C611.2 156.351 608.579 161.068 607.456 165.71C607.306 166.459 607.231 167.132 607.231 167.731C607.231 169.828 608.317 170.913 610.488 170.988ZM638.34 177.165C636.693 177.165 635.645 176.903 635.195 176.379C634.746 176.379 633.698 175.293 632.051 173.122C631.077 171.774 630.591 169.416 630.591 166.047C630.591 161.929 631.826 157.137 634.297 151.672L626.436 161.33C620.82 168.218 616.066 172.561 612.173 174.357H611.948V174.47L610.601 174.694C607.381 174.694 605.173 173.534 603.975 171.213C603.9 170.764 603.787 170.464 603.638 170.314C603.488 169.715 603.413 169.079 603.413 168.405C603.413 167.357 603.563 166.271 603.862 165.148C606.108 158.485 609.44 152.87 613.857 148.303C614.082 148.003 615.505 146.506 618.125 143.811C624.564 138.495 631.152 135.837 637.891 135.837C638.789 135.837 639.613 135.912 640.361 136.062C640.736 136.211 641.147 136.286 641.597 136.286C642.046 136.286 642.72 136.473 643.618 136.848C643.843 136.848 644.067 136.923 644.292 137.072C644.591 137.147 644.741 137.185 644.741 137.185C644.816 137.185 644.854 137.222 644.854 137.297C645.452 137.447 645.752 137.821 645.752 138.42L645.64 138.981C640.623 145.495 636.955 152.832 634.634 160.993C634.185 163.015 633.96 164.812 633.96 166.384C633.96 170.277 635.27 172.748 637.891 173.796C638.19 173.946 638.564 174.021 639.014 174.021C642.533 174.021 647.437 170.277 653.726 162.79L668.55 144.934C669.224 144.934 669.561 145.196 669.561 145.72L669.448 146.281C661.138 157.736 653.651 166.534 646.987 172.673C643.468 175.443 640.998 176.903 639.575 177.053L638.34 177.165Z" fill="#010101"/>
<path d="M170.5 77V75.4274C171.898 75.3737 172.933 75.2661 173.605 75.1048C174.304 74.9167 174.761 74.5941 174.976 74.1371C175.191 73.6532 175.298 72.9274 175.298 71.9597V53.4919C175.298 52.5242 175.191 51.8118 174.976 51.3548C174.761 50.871 174.304 50.5349 173.605 50.3468C172.933 50.1586 171.898 50.0511 170.5 50.0242V48.4516C171.925 48.4785 173.78 48.5054 176.065 48.5323C178.376 48.5591 181.065 48.5726 184.129 48.5726C185.07 48.5726 186.024 48.5726 186.992 48.5726C187.96 48.5726 188.887 48.5591 189.774 48.5323C190.688 48.5054 191.522 48.4785 192.274 48.4516C192.274 49.7419 192.328 51.0323 192.435 52.3226C192.543 53.586 192.704 54.8629 192.919 56.1532H191.306C190.93 54.5672 190.5 53.3441 190.016 52.4839C189.532 51.5968 188.901 50.9919 188.121 50.6694C187.368 50.3199 186.374 50.1452 185.137 50.1452H179.048V71.9597C179.048 72.9274 179.129 73.6532 179.29 74.1371C179.452 74.5941 179.788 74.9032 180.298 75.0645C180.809 75.2258 181.575 75.3065 182.597 75.3065H184.411C186.132 75.3065 187.516 75.0914 188.565 74.6613C189.613 74.2312 190.46 73.4382 191.105 72.2823C191.777 71.1263 192.409 69.4597 193 67.2823H194.653C194.438 68.8683 194.263 70.4543 194.129 72.0403C194.022 73.6263 193.968 75.2796 193.968 77C192.731 76.9462 191.306 76.9194 189.694 76.9194C188.108 76.8925 186.253 76.879 184.129 76.879C181.065 76.879 178.376 76.8925 176.065 76.9194C173.78 76.9194 171.925 76.9462 170.5 77ZM177.758 63.4113V61.879H184.815V63.4113H177.758ZM186.669 68.5726C186.535 67.2554 186.32 66.2204 186.024 65.4677C185.755 64.7151 185.325 64.1909 184.734 63.8952C184.142 63.5726 183.349 63.4113 182.355 63.4113V61.879C183.753 61.879 184.747 61.4892 185.339 60.7097C185.957 59.9301 186.36 58.5995 186.548 56.7177H187.919C187.812 58.3038 187.758 59.5134 187.758 60.3468C187.785 61.1801 187.798 61.9462 187.798 62.6452C187.798 63.2366 187.798 63.8145 187.798 64.379C187.825 64.9167 187.852 65.5215 187.879 66.1935C187.933 66.8387 188 67.6317 188.081 68.5726H186.669ZM220.19 77.5645C218.658 77.5645 217.341 77.4032 216.239 77.0806C215.163 76.7581 214.276 76.4355 213.577 76.1129C212.905 75.7903 212.354 75.629 211.924 75.629C211.601 75.629 211.333 75.7769 211.118 76.0726C210.929 76.3683 210.782 76.7984 210.674 77.3629H209.061C209.115 76.7715 209.155 76.0591 209.182 75.2258C209.209 74.3656 209.222 73.2769 209.222 71.9597C209.249 70.6156 209.263 68.9489 209.263 66.9597H210.876C211.064 69.7285 211.937 71.9328 213.497 73.5726C215.056 75.1855 217.085 75.9919 219.585 75.9919C221.413 75.9919 222.878 75.5215 223.98 74.5806C225.083 73.6129 225.634 72.3226 225.634 70.7097C225.634 69.7151 225.392 68.828 224.908 68.0484C224.451 67.2688 223.698 66.5565 222.65 65.9113C221.628 65.2661 220.271 64.6344 218.577 64.0161C216.48 63.2634 214.773 62.457 213.456 61.5968C212.166 60.7366 211.212 59.7823 210.593 58.7339C210.002 57.6586 209.706 56.4624 209.706 55.1452C209.706 53.6667 210.042 52.3898 210.714 51.3145C211.386 50.2124 212.341 49.3656 213.577 48.7742C214.814 48.1828 216.265 47.8871 217.932 47.8871C219.357 47.8871 220.526 48.0484 221.44 48.371C222.381 48.6667 223.147 48.9758 223.739 49.2984C224.357 49.621 224.894 49.7823 225.351 49.7823C225.674 49.7823 225.943 49.6478 226.158 49.379C226.373 49.0833 226.521 48.6532 226.601 48.0887H228.255C228.201 48.6801 228.147 49.3387 228.093 50.0645C228.066 50.7903 228.04 51.7043 228.013 52.8065C228.013 53.9086 228.013 55.3065 228.013 57H226.4C226.185 54.7151 225.365 52.8871 223.94 51.5161C222.542 50.1452 220.755 49.4597 218.577 49.4597C216.857 49.4597 215.526 49.8763 214.585 50.7097C213.644 51.543 213.174 52.672 213.174 54.0968C213.174 55.0645 213.416 55.9247 213.9 56.6774C214.411 57.4301 215.217 58.1425 216.319 58.8145C217.448 59.4597 218.94 60.1317 220.795 60.8306C223.886 61.9597 226.104 63.2231 227.448 64.621C228.792 65.9919 229.464 67.6989 229.464 69.7419C229.464 72.1344 228.631 74.043 226.964 75.4677C225.298 76.8656 223.04 77.5645 220.19 77.5645ZM243.115 77V75.4274C244.513 75.3737 245.548 75.2661 246.22 75.1048C246.892 74.9167 247.336 74.5806 247.551 74.0968C247.793 73.6129 247.914 72.9005 247.914 71.9597V53.4919C247.914 52.5242 247.793 51.8118 247.551 51.3548C247.336 50.871 246.892 50.5349 246.22 50.3468C245.548 50.1586 244.513 50.0511 243.115 50.0242V48.4516C243.492 48.4785 243.975 48.5054 244.567 48.5323C245.158 48.5323 245.857 48.5323 246.664 48.5323C247.47 48.5323 248.371 48.5323 249.365 48.5323C250.897 48.5323 252.255 48.5323 253.438 48.5323C254.621 48.5054 255.481 48.4919 256.018 48.4919C259.244 48.4919 261.744 49.2312 263.518 50.7097C265.32 52.1882 266.22 54.2581 266.22 56.9194C266.22 58.7473 265.763 60.3333 264.849 61.6774C263.962 63.0215 262.685 64.0565 261.018 64.7823C259.352 65.5081 257.376 65.871 255.091 65.871C254.553 65.871 254.029 65.8575 253.518 65.8306C253.035 65.7769 252.578 65.7097 252.147 65.629C251.717 65.5484 251.328 65.4543 250.978 65.3468V63.8145C251.516 63.9758 252.107 64.0968 252.752 64.1774C253.424 64.2581 254.083 64.2984 254.728 64.2984C257.201 64.2984 259.056 63.6935 260.293 62.4839C261.556 61.2742 262.188 59.4597 262.188 57.0403C262.188 54.6478 261.61 52.8871 260.454 51.7581C259.298 50.6022 257.51 50.0242 255.091 50.0242H251.664V71.9597C251.664 72.9005 251.798 73.6129 252.067 74.0968C252.336 74.5806 252.873 74.9167 253.68 75.1048C254.486 75.2661 255.696 75.3737 257.309 75.4274V77C256.879 76.9731 256.314 76.9597 255.615 76.9597C254.916 76.9328 254.083 76.9194 253.115 76.9194C252.174 76.8925 251.099 76.879 249.889 76.879C248.303 76.879 246.946 76.8925 245.817 76.9194C244.688 76.9194 243.787 76.9462 243.115 77ZM274.34 77V75.4274C275.281 75.3737 276.061 75.1989 276.679 74.9032C277.324 74.5806 277.889 74.0833 278.372 73.4113C278.856 72.7392 279.313 71.8656 279.743 70.7903L288.937 48.1694H290.389L300.026 72.0806C300.536 73.3172 301.155 74.1774 301.88 74.6613C302.633 75.1452 303.735 75.4005 305.187 75.4274V77C304.542 76.9462 303.695 76.9194 302.647 76.9194C301.598 76.8925 300.402 76.879 299.058 76.879C297.526 76.879 296.182 76.8925 295.026 76.9194C293.897 76.9194 292.996 76.9462 292.324 77V75.4274C293.749 75.4005 294.784 75.293 295.429 75.1048C296.101 74.9167 296.477 74.5941 296.558 74.1371C296.639 73.6532 296.491 72.9543 296.114 72.0403L288.292 52.6855L289.018 52.0403L281.921 69.4194C281.356 70.8441 281.087 71.9866 281.114 72.8468C281.168 73.707 281.558 74.3387 282.284 74.7419C283.036 75.1452 284.165 75.3737 285.671 75.4274V77C284.972 76.9731 284.26 76.9597 283.534 76.9597C282.808 76.9328 282.082 76.9194 281.356 76.9194C280.657 76.8925 279.945 76.879 279.219 76.879C278.413 76.879 277.62 76.8925 276.84 76.9194C276.061 76.9194 275.227 76.9462 274.34 77ZM282.042 67L282.687 65.4274H295.55L296.114 67H282.042ZM328.64 77.5645C326.086 77.5645 323.855 76.9731 321.946 75.7903C320.065 74.5806 318.6 72.9005 317.551 70.75C316.53 68.5726 316.019 66.0323 316.019 63.129C316.019 60.1183 316.57 57.4704 317.672 55.1855C318.774 52.9005 320.293 51.1129 322.229 49.8226C324.164 48.5323 326.409 47.8871 328.963 47.8871C330.145 47.8871 331.194 48.0215 332.108 48.2903C333.022 48.5323 333.801 48.8414 334.446 49.2177C335.118 49.5672 335.696 49.8763 336.18 50.1452C336.691 50.3871 337.148 50.5081 337.551 50.5081C337.928 50.5081 338.223 50.3199 338.438 49.9435C338.653 49.5672 338.815 48.9489 338.922 48.0887H340.535C340.508 48.7876 340.481 49.5806 340.455 50.4677C340.428 51.328 340.401 52.4032 340.374 53.6935C340.374 54.9839 340.374 56.6102 340.374 58.5726H338.761C338.438 56.6909 337.834 55.078 336.946 53.7339C336.059 52.3629 334.957 51.3011 333.64 50.5484C332.35 49.7957 330.885 49.4194 329.245 49.4194C326.368 49.4194 324.11 50.5887 322.471 52.9274C320.858 55.2661 320.051 58.5054 320.051 62.6452C320.051 66.8118 320.871 70.0914 322.511 72.4839C324.151 74.8495 326.395 76.0323 329.245 76.0323C330.912 76.0323 332.403 75.6559 333.721 74.9032C335.038 74.1237 336.14 73.0484 337.027 71.6774C337.914 70.3065 338.492 68.707 338.761 66.879H340.374C340.374 68.7608 340.374 70.3468 340.374 71.6371C340.401 72.9005 340.428 73.9892 340.455 74.9032C340.481 75.8172 340.508 76.6371 340.535 77.3629H338.922C338.815 76.4758 338.653 75.8575 338.438 75.5081C338.25 75.1586 337.955 74.9839 337.551 74.9839C337.121 74.9839 336.651 75.1183 336.14 75.3871C335.629 75.629 335.024 75.9247 334.325 76.2742C333.653 76.6237 332.847 76.9194 331.906 77.1613C330.992 77.4301 329.903 77.5645 328.64 77.5645ZM327.874 86.879C327.336 86.879 326.785 86.8387 326.221 86.7581C325.683 86.7043 325.213 86.6102 324.809 86.4758L325.011 85.5081C325.226 85.5618 325.508 85.6022 325.858 85.629C326.234 85.6559 326.584 85.6694 326.906 85.6694C328.035 85.6694 328.922 85.4409 329.567 84.9839C330.239 84.5538 330.575 83.9355 330.575 83.129C330.575 82.4839 330.374 82 329.971 81.6774C329.594 81.3548 329.057 81.1935 328.358 81.1935C327.981 81.1935 327.618 81.2204 327.269 81.2742C326.946 81.328 326.705 81.3817 326.543 81.4355L328.317 77.0806H329.527L328.196 80.3871C328.519 80.1989 328.842 80.0645 329.164 79.9839C329.487 79.9032 329.85 79.8629 330.253 79.8629C331.221 79.8629 332.014 80.1317 332.632 80.6694C333.277 81.207 333.6 81.9731 333.6 82.9677C333.6 84.1774 333.075 85.1317 332.027 85.8306C330.979 86.5296 329.594 86.879 327.874 86.879ZM369.139 77.5645C366.424 77.5645 364.045 76.9866 362.002 75.8306C359.986 74.6478 358.427 72.9677 357.325 70.7903C356.222 68.6129 355.671 65.9919 355.671 62.9274C355.671 59.9167 356.236 57.2823 357.365 55.0242C358.521 52.7661 360.107 51.0188 362.123 49.7823C364.139 48.5188 366.491 47.8871 369.179 47.8871C371.894 47.8871 374.26 48.4785 376.276 49.6613C378.292 50.8172 379.851 52.4839 380.954 54.6613C382.083 56.8118 382.647 59.4328 382.647 62.5242C382.647 65.5349 382.069 68.1694 380.913 70.4274C379.784 72.6855 378.198 74.4462 376.155 75.7097C374.139 76.9462 371.8 77.5645 369.139 77.5645ZM369.26 76.0726C371.169 76.0726 372.822 75.5081 374.22 74.379C375.618 73.25 376.693 71.6774 377.446 69.6613C378.225 67.6452 378.615 65.3065 378.615 62.6452C378.615 59.9301 378.198 57.5914 377.365 55.629C376.532 53.6398 375.389 52.1075 373.937 51.0323C372.486 49.9301 370.86 49.379 369.058 49.379C367.15 49.379 365.497 49.9435 364.099 51.0726C362.701 52.2016 361.612 53.7742 360.833 55.7903C360.08 57.8065 359.704 60.1452 359.704 62.8065C359.704 65.4946 360.12 67.8333 360.954 69.8226C361.787 71.8118 362.929 73.3575 364.381 74.4597C365.833 75.5349 367.459 76.0726 369.26 76.0726Z" fill="black"/>
</svg>
